<svg xmlns="http://www.w3.org/2000/svg" xmlns:ns1="http://www.inkscape.org/namespaces/inkscape" xmlns:ns2="http://sodipodi.sourceforge.net/DTD/sodipodi-0.dtd" version="1.1" width="32" height="32" ns1:version="0.92.3 (unknown)" ns2:docname="ic_library_locked.svg" style="display:inline" ns1:export-filename="" ns1:export-xdpi="135" ns1:export-ydpi="135" fill="#d69c1f">
  <ns2:namedview pagecolor="#ffffff" bordercolor="#666666" borderopacity="1" objecttolerance="10" gridtolerance="10" guidetolerance="10" ns1:pageopacity="0" ns1:pageshadow="2" ns1:window-width="1366" ns1:window-height="740" id="namedview26" showgrid="true" ns1:zoom="8" ns1:cx="1.050546" ns1:cy="7.8168873" ns1:window-x="0" ns1:window-y="0" ns1:window-maximized="1" ns1:current-layer="ic_library_crates" ns1:object-paths="true" showguides="true" ns1:guide-bbox="true" ns1:snap-midpoints="true">
    <ns1:grid type="xygrid" id="grid3788" empspacing="4" visible="true" enabled="true" snapvisiblegridlinesonly="true" originx="4" spacingx="1" spacingy="1" empcolor="#0072ff" empopacity="0.25098039" originy="4" dotted="false" />
  </ns2:namedview>
  <g id="ic_library_crates" ns1:label="#g6169">
    <g id="ic_library_locked" ns1:label="#g6145">
      <path ns2:nodetypes="csssc" ns1:connector-curvature="0" id="path8889" d="m 9.5,16 c 0,0 0.012953,-5 0,-6.5 -0.012957,-1.5004487 0.4612148,-5.9608363 6.5,-6 6,-0.038912 6.495685,4.4997009 6.5,7 0.0026,1.5 0,5.5 0,5.5" style="fill:none;stroke:#d69c1f;stroke-width:3;stroke-linecap:butt;stroke-linejoin:miter" />
      <path ns2:nodetypes="ssssssssscssscaccssscaccssscac" ns1:connector-curvature="0" id="rect8885" d="m 6,16 c -1,0 -2,1 -2,2 v 10 c 0,1 1,2 2,2 h 20 c 1,0 2,-1 2,-2 V 18 c 0,-1 -1,-2 -2,-2 z m 3.03125,2 H 23 c 0.522127,0 0.997189,0.476401 0.997189,1 0,0.523599 -0.475062,1 -0.997189,1 H 9.03125 C 8.4410263,20 8,19.478827 8,19 8,18.521173 8.4261918,18 9.03125,18 Z m 0,4 H 23 c 0.522127,0 0.997189,0.476401 0.997189,1 0,0.523599 -0.475062,1 -0.997189,1 H 9.03125 C 8.4896665,24 8,23.478827 8,23 8,22.521173 8.4836539,22 9.03125,22 Z m 0,4 H 23 c 0.522127,0 0.997189,0.476401 0.997189,1 0,0.523599 -0.475062,1 -0.997189,1 H 9.03125 C 8.4799385,28 8,27.478827 8,27 8,26.521173 8.4473629,26 9.03125,26 Z" style="font-weight:normal;font-size:medium;font-family:Sans;text-anchor:start;fill:#d69c1f;stroke:none;stroke-width:2" />
    </g>
  </g>
</svg>
