<svg xmlns="http://www.w3.org/2000/svg" xmlns:ns1="http://www.inkscape.org/namespaces/inkscape" xmlns:ns2="http://sodipodi.sourceforge.net/DTD/sodipodi-0.dtd" version="1.1" width="32" height="32" ns1:version="0.92.3 (unknown)" ns2:docname="ic_library_history.svg" style="display:inline" ns1:export-filename="" ns1:export-xdpi="135" ns1:export-ydpi="135" fill="#1fd625">
  <ns2:namedview pagecolor="#ffffff" bordercolor="#666666" borderopacity="1" objecttolerance="10" gridtolerance="10" guidetolerance="10" ns1:pageopacity="0" ns1:pageshadow="2" ns1:window-width="1366" ns1:window-height="740" id="namedview26" showgrid="true" ns1:zoom="11.313708" ns1:cx="18.878377" ns1:cy="18.688638" ns1:window-x="0" ns1:window-y="0" ns1:window-maximized="1" ns1:current-layer="ic_library_crates" ns1:object-paths="true" showguides="true" ns1:guide-bbox="true" ns1:snap-midpoints="true">
    <ns1:grid type="xygrid" id="grid3788" empspacing="4" visible="true" enabled="true" snapvisiblegridlinesonly="true" originx="4" spacingx="1" spacingy="1" empcolor="#0072ff" empopacity="0.25098039" originy="4" dotted="false" />
  </ns2:namedview>
  <g id="ic_library_crates" ns1:label="#g6169">
    <g id="ic_library_history" ns1:label="#g4221">
      <rect transform="matrix(0,-1,-1,0,0,0)" style="fill:none;stroke:none;stroke-width:1" id="rect10837-5-8-4-4-2" y="-26" x="-28" height="16" width="16" />
      <path ns2:open="true" ns2:end="2.443461" ns2:start="3.3161256" transform="matrix(1.2941177,0,0,1.2941176,46.115809,-2.470588)" d="m -30.870866,12.02399 a 8.5,8.5 0 0 1 8.000101,-7.0158999 8.5,8.5 0 0 1 8.581135,6.2919479 8.5,8.5 0 0 1 -4.285507,9.739554 8.5,8.5 0 0 1 -10.436241,-2.075898" ns2:ry="8.5" ns2:rx="8.5" ns2:cy="13.5" ns2:cx="-22.5" id="path7817" style="fill:none;stroke:#1fd625;stroke-width:3.090909;stroke-linecap:round" ns2:type="arc" />
      <path ns1:connector-curvature="0" id="path9802" d="M 4,14 C 4,4 4,4 4,4" style="fill:none;stroke:#1fd625;stroke-width:4;stroke-linecap:round;stroke-linejoin:miter" />
      <path style="fill:none;stroke:#1fd625;stroke-width:3.99999976;stroke-linecap:round;stroke-linejoin:miter" d="m 4,14 c 10,0 10,0 10,0" id="path9821" ns1:connector-curvature="0" />
      <rect y="14.5" x="2.5" height="1" width="1" id="rect9825" style="fill:none;stroke:#1fd625;stroke-width:1;stroke-linecap:round;stroke-linejoin:miter" />
    </g>
  </g>
</svg>
